# xmcd CD database file generated by Grip 2.95
# 
# Track frame offsets:
#       150
#       12510
#       23630
#       34752
#       46852
#       57532
#       69472
#       79640
#       90407
#       99685
#       110862
#       121907
#       131745
#       143147
#       153167
#       163077
#       173705
#       182455
#       191542
#       202065
# 
# Disc length: 2904 seconds
# 
# Revision: 3
# Processed by: cddbd v1.4b41PL1 Copyright (c) Steve Scherf et al.
# Submitted via: Grip 2.95
# 
DISCID=0e0b5614
DTITLE=Buck Owens - Streets of Bakerfield - CD1/2
DYEAR=1900
DGENRE=
TTITLE0=Under Your Spell Again
TTITLE1=Above And Beyond
TTITLE2=Excuse Me (I Think I've Got A Heartache)
TTITLE3=Foolin' Around
TTITLE4=Under The Influence Of Love
TTITLE5=Kicken' Our Hearts Around
TTITLE6=You're For Me
TTITLE7=Act Naturally
TTITLE8=Love's Gonna Live Here
TTITLE9=My Heart Skips A Beat
TTITLE10=Together Again
TTITLE11=I Don't Care (Just As Long As You Love Me)
TTITLE12=Cryin' Time
TTITLE13=I've Got A Tiger By The Tail
TTITLE14=Before You Go
TTITLE15=Only You (Can Break My Heart)
TTITLE16=Gonna Have Love
TTITLE17=Buckaroo
TTITLE18=Waitin' In Your Welfare Line
TTITLE19=Dust On Mother's Bible
EXTD=
EXTT0=
EXTT1=
EXTT2=
EXTT3=
EXTT4=
EXTT5=
EXTT6=
EXTT7=
EXTT8=
EXTT9=
EXTT10=
EXTT11=
EXTT12=
EXTT13=
EXTT14=
EXTT15=
EXTT16=
EXTT17=
EXTT18=
EXTT19=
PLAYORDER=
